<?xml version="1.0" encoding="UTF-8"?>
<svg version="1.1" xmlns="http://www.w3.org/2000/svg" width="96" height="96">
<path d="M0 0 C2.5 1.5 2.5 1.5 4 4 C4.54729661 6.78209112 4.58072977 9.22160658 4 12 C2.125 14.5 2.125 14.5 0 16 C-0.66 16 -1.32 16 -2 16 C-2 17.98 -2 19.96 -2 22 C-0.906875 21.9175 0.18625 21.835 1.3125 21.75 C11.02408424 21.83564007 17.93061477 26.16821004 24.80859375 32.68359375 C27.02209485 35.02335516 29.02888102 37.45415841 31 40 C31.99 37.03 31.99 37.03 33 34 C34.99954746 33.95745644 37.00041636 33.95919217 39 34 C40.7329298 35.7329298 40.12820046 37.96214336 40.13894653 40.27148438 C40.13591019 41.37459961 40.13591019 41.37459961 40.1328125 42.5 C40.13376923 43.25087891 40.13472595 44.00175781 40.13571167 44.77539062 C40.13639338 46.36588627 40.13453972 47.95638467 40.13037109 49.546875 C40.12502267 51.98964655 40.13031634 54.43223421 40.13671875 56.875 C40.13605797 58.41666707 40.1347768 59.95833403 40.1328125 61.5 C40.13483673 62.23541016 40.13686096 62.97082031 40.13894653 63.72851562 C40.11495161 68.88504839 40.11495161 68.88504839 39 70 C37.33382885 70.04063832 35.66611905 70.042721 34 70 C34.0825 71.093125 34.165 72.18625 34.25 73.3125 C34 77 34 77 32.34765625 78.62890625 C29.6453866 80.20710367 27.23299887 80.91347138 24.1875 81.625 C23.19105469 81.86476563 22.19460937 82.10453125 21.16796875 82.3515625 C2.66335775 86.13918941 -23.95231647 87.35115582 -41 78 C-42 77 -42 77 -42.0625 73.4375 C-42.041875 72.303125 -42.02125 71.16875 -42 70 C-42.804375 70.020625 -43.60875 70.04125 -44.4375 70.0625 C-47 70 -47 70 -48 69 C-48.10087212 66.49075847 -48.13972032 64.00963616 -48.1328125 61.5 C-48.13376923 60.74912109 -48.13472595 59.99824219 -48.13571167 59.22460938 C-48.13639338 57.63411373 -48.13453972 56.04361533 -48.13037109 54.453125 C-48.12502267 52.01035345 -48.13031634 49.56776579 -48.13671875 47.125 C-48.13605797 45.58333293 -48.1347768 44.04166597 -48.1328125 42.5 C-48.13483673 41.76458984 -48.13686096 41.02917969 -48.13894653 40.27148438 C-48.11495161 35.11495161 -48.11495161 35.11495161 -47 34 C-45.00041636 33.95919217 -42.99954746 33.95745644 -41 34 C-40.34 35.98 -39.68 37.96 -39 40 C-38.43152344 39.33613281 -37.86304688 38.67226563 -37.27734375 37.98828125 C-30.069181 29.74522368 -23.13350124 22.69790873 -11.6484375 21.8203125 C-9.7646843 21.81365613 -7.8809689 21.8974017 -6 22 C-6 20.02 -6 18.04 -6 16 C-6.804375 15.71125 -7.60875 15.4225 -8.4375 15.125 C-11 14 -11 14 -12 12 C-12.56872038 4.9478673 -12.56872038 4.9478673 -10.5 1.5 C-6.96411027 -0.62153384 -4.02098277 -0.791013 0 0 Z " fill="#7D56C1" transform="translate(52,4)"/>
<path d="M0 0 C2.5 1.5 2.5 1.5 4 4 C4.54729661 6.78209112 4.58072977 9.22160658 4 12 C2.125 14.5 2.125 14.5 0 16 C-0.66 16 -1.32 16 -2 16 C-2 17.98 -2 19.96 -2 22 C-2.97839844 22.27972656 -3.95679688 22.55945313 -4.96484375 22.84765625 C-16.15019874 26.20054959 -24.02487499 30.34988705 -30.7109375 40.30078125 C-34.89445438 49.06081205 -35.50742252 57.51400766 -35.6875 67.125 C-35.72166016 68.36765625 -35.75582031 69.6103125 -35.79101562 70.890625 C-35.87276399 73.92699297 -35.94215122 76.96309868 -36 80 C-40.875 78.125 -40.875 78.125 -42 77 C-42.04092937 74.66702567 -42.04241723 72.33294775 -42 70 C-42.804375 70.020625 -43.60875 70.04125 -44.4375 70.0625 C-47 70 -47 70 -48 69 C-48.10087212 66.49075847 -48.13972032 64.00963616 -48.1328125 61.5 C-48.13376923 60.74912109 -48.13472595 59.99824219 -48.13571167 59.22460938 C-48.13639338 57.63411373 -48.13453972 56.04361533 -48.13037109 54.453125 C-48.12502267 52.01035345 -48.13031634 49.56776579 -48.13671875 47.125 C-48.13605797 45.58333293 -48.1347768 44.04166597 -48.1328125 42.5 C-48.13483673 41.76458984 -48.13686096 41.02917969 -48.13894653 40.27148438 C-48.11495161 35.11495161 -48.11495161 35.11495161 -47 34 C-45.00041636 33.95919217 -42.99954746 33.95745644 -41 34 C-40.34 35.98 -39.68 37.96 -39 40 C-38.43152344 39.33613281 -37.86304688 38.67226563 -37.27734375 37.98828125 C-30.069181 29.74522368 -23.13350124 22.69790873 -11.6484375 21.8203125 C-9.7646843 21.81365613 -7.8809689 21.8974017 -6 22 C-6 20.02 -6 18.04 -6 16 C-6.804375 15.71125 -7.60875 15.4225 -8.4375 15.125 C-11 14 -11 14 -12 12 C-12.56872038 4.9478673 -12.56872038 4.9478673 -10.5 1.5 C-6.96411027 -0.62153384 -4.02098277 -0.791013 0 0 Z " fill="#6E49B9" transform="translate(52,4)"/>
<path d="M0 0 C3.51256394 2.23526796 5.24069824 3.68120837 6.25390625 7.796875 C7.08008855 12.98008184 6.83131972 16.28739903 3.75 20.75 C0.50953856 23.68666818 -2.18514935 24.64954239 -6.5625 25.0625 C-11.00886282 24.68568959 -12.88948122 23.65226622 -16.25 20.75 C-19.160372 16.384442 -19.9006249 12.95499921 -19.25 7.75 C-14.97331717 -0.48657434 -8.89361805 -3.42062233 0 0 Z " fill="#6139B2" transform="translate(71.25,49.25)"/>
<path d="M0 0 C3.51256394 2.23526796 5.24069824 3.68120837 6.25390625 7.796875 C7.08008855 12.98008184 6.83131972 16.28739903 3.75 20.75 C0.50953856 23.68666818 -2.18514935 24.64954239 -6.5625 25.0625 C-11.00886282 24.68568959 -12.88948122 23.65226622 -16.25 20.75 C-19.160372 16.384442 -19.9006249 12.95499921 -19.25 7.75 C-14.97331717 -0.48657434 -8.89361805 -3.42062233 0 0 Z " fill="#6139B2" transform="translate(37.25,49.25)"/>
<path d="M0 0 C2.69990662 1.79993774 4.5418865 3.083773 6 6 C6.43023798 9.87214182 6.31669086 11.52496371 4.125 14.8125 C1.61855093 17.39266816 0.74538327 17.91717964 -2.8125 18.3125 C-6.7307645 17.92835642 -8.21293267 16.70743683 -11 14 C-12.42662219 11.14675563 -12.31033868 9.16545451 -12 6 C-8.54235344 0.81353016 -6.24330406 -0.61208863 0 0 Z " fill="#F6EEC3" transform="translate(68,52)"/>
<path d="M0 0 C2.69990662 1.79993774 4.5418865 3.083773 6 6 C6.43023798 9.87214182 6.31669086 11.52496371 4.125 14.8125 C1.61855093 17.39266816 0.74538327 17.91717964 -2.8125 18.3125 C-6.7307645 17.92835642 -8.21293267 16.70743683 -11 14 C-12.42662219 11.14675563 -12.31033868 9.16545451 -12 6 C-8.54235344 0.81353016 -6.24330406 -0.61208863 0 0 Z " fill="#F6EEC3" transform="translate(34,52)"/>
<path d="M0 0 C3 0.125 3 0.125 4 1.125 C5.32488843 8.23121978 5.32488843 8.23121978 4.05859375 11.71484375 C2.58580547 16.45928718 2.53570036 21.0584639 2.375 26 C2.33632812 26.97453125 2.29765625 27.9490625 2.2578125 28.953125 C2.16406967 31.3435672 2.0783617 33.73401244 2 36.125 C0.33388095 36.167721 -1.33382885 36.16563832 -3 36.125 C-4.7329298 34.3920702 -4.12820046 32.16285664 -4.13894653 29.85351562 C-4.1369223 29.11810547 -4.13489807 28.38269531 -4.1328125 27.625 C-4.13376923 26.87412109 -4.13472595 26.12324219 -4.13571167 25.34960938 C-4.13639338 23.75911373 -4.13453972 22.16861533 -4.13037109 20.578125 C-4.12502267 18.13535345 -4.13031634 15.69276579 -4.13671875 13.25 C-4.13605797 11.70833293 -4.1347768 10.16666597 -4.1328125 8.625 C-4.13483673 7.88958984 -4.13686096 7.15417969 -4.13894653 6.39648438 C-4.10997861 0.17124911 -4.10997861 0.17124911 0 0 Z " fill="#512DA7" transform="translate(8,37.875)"/>
<path d="M0 0 C3 0.125 3 0.125 4 1.125 C4.10087212 3.63424153 4.13972032 6.11536384 4.1328125 8.625 C4.13376923 9.37587891 4.13472595 10.12675781 4.13571167 10.90039062 C4.13639338 12.49088627 4.13453972 14.08138467 4.13037109 15.671875 C4.12502267 18.11464655 4.13031634 20.55723421 4.13671875 23 C4.13605797 24.54166707 4.1347768 26.08333403 4.1328125 27.625 C4.13483673 28.36041016 4.13686096 29.09582031 4.13894653 29.85351562 C4.11495161 35.01004839 4.11495161 35.01004839 3 36.125 C1.33382885 36.16563832 -0.33388095 36.167721 -2 36.125 C-2.02505615 35.50455811 -2.0501123 34.88411621 -2.07592773 34.24487305 C-2.19196721 31.43387603 -2.31465759 28.62320759 -2.4375 25.8125 C-2.47681641 24.83603516 -2.51613281 23.85957031 -2.55664062 22.85351562 C-2.59853516 21.91572266 -2.64042969 20.97792969 -2.68359375 20.01171875 C-2.72025146 19.14764404 -2.75690918 18.28356934 -2.79467773 17.39331055 C-2.92747354 14.9602174 -2.92747354 14.9602174 -4 12.125 C-4.09338218 10.25186336 -4.12994843 8.37545638 -4.125 6.5 C-4.12757812 5.51773438 -4.13015625 4.53546875 -4.1328125 3.5234375 C-3.93477151 -0.05294984 -3.64523674 0.15188486 0 0 Z " fill="#502CA7" transform="translate(88,37.875)"/>
<path d="M0 0 C1.60030511 3.20061023 1.49422098 6.5267248 1 10 C-0.99005237 12.94822573 -2.07743428 13.81998718 -5.5625 14.5 C-8 14 -8 14 -9.875 12.4375 C-11.50185386 8.91264997 -11.00774793 6.69507573 -10 3 C-7.04030655 -0.39816655 -4.33779596 -0.29575882 0 0 Z " fill="#7D56C1" transform="translate(55,6)"/>
<path d="M0 0 C0.66 0.66 1.32 1.32 2 2 C0.329375 2.4021875 0.329375 2.4021875 -1.375 2.8125 C-5.21840951 3.65809019 -5.21840951 3.65809019 -7 7 C-7.00082535 10.57756686 -7.00082535 10.57756686 -6 14 C-4.06402968 15.51294288 -4.06402968 15.51294288 -2 16 C-2 17.98 -2 19.96 -2 22 C-3.32 22 -4.64 22 -6 22 C-6 20.02 -6 18.04 -6 16 C-6.804375 15.71125 -7.60875 15.4225 -8.4375 15.125 C-11 14 -11 14 -12 12 C-12.56872038 4.9478673 -12.56872038 4.9478673 -10.5 1.5 C-6.78559093 -0.72864544 -4.29911397 -0.41604329 0 0 Z " fill="#6E4AB8" transform="translate(52,4)"/>
<path d="M0 0 C1.32278481 5.41139241 1.32278481 5.41139241 -0.0625 7.9375 C-2.91093248 9.49954362 -4.93504903 8.74921024 -8 8 C-9.32278481 2.58860759 -9.32278481 2.58860759 -7.9375 0.0625 C-5.08906752 -1.49954362 -3.06495097 -0.74921024 0 0 Z " fill="#6472C0" transform="translate(69,57)"/>
<path d="M0 0 C1.32278481 5.41139241 1.32278481 5.41139241 -0.0625 7.9375 C-2.91093248 9.49954362 -4.93504903 8.74921024 -8 8 C-9.32278481 2.58860759 -9.32278481 2.58860759 -7.9375 0.0625 C-5.08906752 -1.49954362 -3.06495097 -0.74921024 0 0 Z " fill="#6472C0" transform="translate(35,57)"/>
<path d="M0 0 C1.32 0 2.64 0 4 0 C4 1.98 4 3.96 4 6 C2.68 6 1.36 6 0 6 C0 4.02 0 2.04 0 0 Z " fill="#512DA8" transform="translate(46,20)"/>
</svg>
